<svg width="0" height="0" class="hidden">
  <symbol xmlns="http://www.w3.org/2000/svg" viewBox="0 0 13 13" id="arrow">
    <path d="M10.1093 5.26552L6.35927 9.01552C6.32444 9.05039 6.28309 9.07805 6.23756 9.09692C6.19204 9.11579 6.14324 9.1255 6.09396 9.1255C6.04468 9.1255 5.99588 9.11579 5.95036 9.09692C5.90483 9.07805 5.86347 9.05039 5.82865 9.01552L2.07865 5.26552C2.00828 5.19516 1.96875 5.09972 1.96875 5.00021C1.96875 4.9007 2.00828 4.80526 2.07865 4.7349C2.14901 4.66453 2.24445 4.625 2.34396 4.625C2.44347 4.625 2.53891 4.66453 2.60927 4.7349L6.09396 8.22005L9.57865 4.7349C9.61349 4.70005 9.65485 4.67242 9.70037 4.65356C9.74589 4.6347 9.79469 4.625 9.84396 4.625C9.89323 4.625 9.94202 4.6347 9.98755 4.65356C10.0331 4.67242 10.0744 4.70005 10.1093 4.7349C10.1441 4.76974 10.1718 4.8111 10.1906 4.85662C10.2095 4.90214 10.2192 4.95094 10.2192 5.00021C10.2192 5.04948 10.2095 5.09827 10.1906 5.14379C10.1718 5.18932 10.1441 5.23068 10.1093 5.26552Z" />
  </symbol>
  <symbol xmlns="http://www.w3.org/2000/svg" viewBox="0 0 20 20" id="search">
    <path d="M17.9419 17.0575L14.0302 13.1466C15.1639 11.7854 15.7293 10.0395 15.6086 8.27214C15.488 6.50475 14.6906 4.85192 13.3823 3.65748C12.074 2.46304 10.3557 1.81895 8.58462 1.8592C6.81357 1.89945 5.12622 2.62094 3.87358 3.87358C2.62094 5.12622 1.89945 6.81357 1.8592 8.58462C1.81895 10.3557 2.46304 12.074 3.65748 13.3823C4.85192 14.6906 6.50475 15.488 8.27214 15.6086C10.0395 15.7293 11.7854 15.1639 13.1466 14.0302L17.0575 17.9419C17.1156 17.9999 17.1845 18.046 17.2604 18.0774C17.3363 18.1089 17.4176 18.125 17.4997 18.125C17.5818 18.125 17.6631 18.1089 17.739 18.0774C17.8149 18.046 17.8838 17.9999 17.9419 17.9419C17.9999 17.8838 18.046 17.8149 18.0774 17.739C18.1089 17.6631 18.125 17.5818 18.125 17.4997C18.125 17.4176 18.1089 17.3363 18.0774 17.2604C18.046 17.1845 17.9999 17.1156 17.9419 17.0575ZM3.12469 8.74969C3.12469 7.63717 3.45459 6.54963 4.07267 5.62461C4.69076 4.69958 5.56926 3.97861 6.5971 3.55287C7.62493 3.12712 8.75593 3.01573 9.84707 3.23277C10.9382 3.44981 11.9405 3.98554 12.7272 4.77221C13.5138 5.55888 14.0496 6.56116 14.2666 7.65231C14.4837 8.74345 14.3723 9.87445 13.9465 10.9023C13.5208 11.9301 12.7998 12.8086 11.8748 13.4267C10.9497 14.0448 9.86221 14.3747 8.74969 14.3747C7.25836 14.373 5.82858 13.7799 4.77404 12.7253C3.71951 11.6708 3.12634 10.241 3.12469 8.74969Z" fill="#768C9E" />
  </symbol>
  <symbol xmlns="http://www.w3.org/2000/svg" viewBox="0 0 13 13" id="phone">
    <path d="M12.4925 9.94237C12.3811 10.7893 11.9651 11.5666 11.3224 12.1293C10.6797 12.6919 9.8542 13.0014 9.00001 12.9999C4.03751 12.9999 5.6554e-06 8.96237 5.6554e-06 3.99987C-0.00152558 3.14568 0.307935 2.32014 0.870589 1.67743C1.43324 1.03473 2.21061 0.618815 3.05751 0.507374C3.27166 0.481224 3.48854 0.525037 3.67575 0.632273C3.86296 0.739508 4.01047 0.904414 4.09626 1.10237L5.41626 4.04925V4.05675C5.48194 4.20828 5.50906 4.37372 5.49521 4.5383C5.48136 4.70287 5.42696 4.86145 5.33688 4.99987C5.32563 5.01675 5.31376 5.03237 5.30126 5.048L4.00001 6.5905C4.46813 7.54175 5.46313 8.528 6.42688 8.99737L7.94813 7.703C7.96307 7.69044 7.97872 7.67875 7.99501 7.668C8.13331 7.57575 8.29244 7.51944 8.45799 7.50416C8.62353 7.48888 8.79028 7.51512 8.94313 7.5805L8.95126 7.58425L11.8956 8.90362C12.0939 8.98911 12.2592 9.13649 12.3668 9.32372C12.4744 9.51096 12.5185 9.728 12.4925 9.94237Z"/>
  </symbol>
  <symbol xmlns="http://www.w3.org/2000/svg" viewBox="0 0 12 10" id="check">
    <path d="M4.70806 9.20806L11.7081 2.20806C11.801 2.11515 11.8747 2.00485 11.9249 1.88345C11.9752 1.76206 12.0011 1.63195 12.0011 1.50056C12.0011 1.36916 11.9752 1.23905 11.9249 1.11766C11.8747 0.996267 11.801 0.885966 11.7081 0.793056C11.6151 0.700145 11.5048 0.626445 11.3835 0.576162C11.2621 0.52588 11.132 0.5 11.0006 0.5C10.8692 0.5 10.7391 0.52588 10.6177 0.576162C10.4963 0.626445 10.386 0.700145 10.2931 0.793056L4.00056 7.08681L1.70806 4.79306C1.52042 4.60541 1.26592 4.5 1.00056 4.5C0.735192 4.5 0.480696 4.60541 0.293056 4.79306C0.105415 4.9807 0 5.23519 0 5.50056C0 5.76592 0.105415 6.02042 0.293056 6.20806L3.29306 9.20806C3.38593 9.30103 3.49622 9.37479 3.61762 9.42512C3.73901 9.47544 3.86914 9.50134 4.00056 9.50134C4.13197 9.50134 4.2621 9.47544 4.3835 9.42512C4.50489 9.37479 4.61518 9.30103 4.70806 9.20806Z" />
  </symbol>
  <symbol xmlns="http://www.w3.org/2000/svg" viewBox="0 0 12 14" id="hit">
    <path d="M6.96125 0.615524C6.89961 0.564278 6.82656 0.528603 6.74824 0.511506C6.66993 0.494409 6.58865 0.496391 6.51127 0.517285C6.43388 0.538178 6.36265 0.577372 6.30359 0.631561C6.24452 0.685749 6.19935 0.753345 6.17188 0.828649L4.79688 4.60427L3.28687 3.14115C3.23616 3.09196 3.17561 3.05408 3.10919 3.03C3.04278 3.00592 2.97201 2.99619 2.90157 3.00145C2.83112 3.0067 2.76258 3.02683 2.70047 3.06049C2.63837 3.09416 2.5841 3.14061 2.54125 3.19677C1.1875 4.97052 0.5 6.7549 0.5 8.4999C0.5 9.95859 1.07946 11.3575 2.11091 12.389C3.14236 13.4204 4.54131 13.9999 6 13.9999C7.45869 13.9999 8.85764 13.4204 9.88909 12.389C10.9205 11.3575 11.5 9.95859 11.5 8.4999C11.5 4.78427 8.32563 1.7499 6.96125 0.615524ZM9.49312 9.08365C9.36347 9.80784 9.01506 10.4749 8.49478 10.9951C7.9745 11.5153 7.30734 11.8635 6.58313 11.993C6.55567 11.9977 6.52786 12 6.5 11.9999C6.37458 11.9999 6.25375 11.9527 6.16148 11.8678C6.06921 11.7828 6.01223 11.6663 6.00185 11.5413C5.99146 11.4163 6.02843 11.292 6.10542 11.193C6.18242 11.094 6.2938 11.0275 6.4175 11.0068C7.45312 10.8324 8.33187 9.95365 8.5075 8.91615C8.52971 8.78536 8.60297 8.66876 8.71115 8.59199C8.81934 8.51521 8.95359 8.48456 9.08438 8.50677C9.21516 8.52899 9.33176 8.60224 9.40854 8.71043C9.48531 8.81861 9.51596 8.95286 9.49375 9.08365H9.49312Z"/>
  </symbol>
  <symbol xmlns="http://www.w3.org/2000/svg" viewBox="0 0 21 21" id="whatsapp">
    <path d="M0.208347 20.946C0.0905059 20.8807 0.00199231 20.7319 1.28638e-06 20.5959C-0.000799311 20.5412 0.372202 19.5273 0.828891 18.3428L1.65924 16.189L1.52501 15.9577C1.27811 15.5322 0.785977 14.4988 0.632508 14.0837C0.43706 13.5551 0.19174 12.576 0.0974861 11.9483C0.00598801 11.3391 -0.00824378 9.76114 0.0726704 9.19695C0.421351 6.76568 1.42741 4.71238 3.07977 3.05965C4.73042 1.40863 6.80976 0.386535 9.19515 0.0536557C9.70781 -0.0178852 11.3101 -0.0178852 11.8228 0.0536557C14.8945 0.482319 17.5066 2.08936 19.2085 4.5976C20.1102 5.92662 20.6597 7.35392 20.9238 9.05322C21.0159 9.64548 21.0271 11.2609 20.9432 11.8251C20.5861 14.224 19.5488 16.3232 17.9207 17.9419C15.3818 20.466 11.7691 21.515 8.23033 20.7558C7.33373 20.5634 5.98852 20.0295 5.15111 19.5336L4.94583 19.412L2.72879 20.2058C1.50942 20.6424 0.465561 20.9998 0.409109 21C0.352656 21.0002 0.262313 20.9759 0.208347 20.946Z" fill="#25D366"/>
    <path d="M14.7953 14.7794C14.4848 15.0863 14.1669 15.2822 13.7411 15.4291C13.343 15.5664 12.6313 15.6029 12.2086 15.5077C11.2233 15.2857 9.71462 14.5033 8.42371 13.5449C7.20387 12.6393 6.15367 11.3231 5.27934 9.60419C4.60087 8.27034 4.42085 7.41958 4.63764 6.57173C4.876 5.63954 5.61108 4.86995 6.51766 4.60344C6.6823 4.55504 6.92659 4.53516 7.35654 4.53516C7.90932 4.53516 7.97333 4.54318 8.07809 4.62561C8.15081 4.68282 8.38452 5.09545 8.71409 5.74849L9.23513 6.78093L9.23366 7.14453C9.23235 7.46961 9.21624 7.54213 9.08155 7.82903C8.9987 8.00553 8.80361 8.30765 8.64802 8.50041L8.36513 8.85088L8.56581 9.25111C9.08758 10.2917 9.85723 11.0521 10.9224 11.5793L11.283 11.7578L11.5281 11.5365C12.0454 11.0695 12.5605 10.8451 13.0425 10.8765C13.3232 10.8948 13.4059 10.9282 14.3683 11.4109C14.9328 11.694 15.4332 11.9683 15.4803 12.0205C15.5558 12.1042 15.5674 12.1869 15.5795 12.7253C15.5923 13.2914 15.5852 13.3594 15.4802 13.6723C15.3322 14.1131 15.1164 14.4619 14.7953 14.7794Z" fill="white"/>
  </symbol>
  <symbol xmlns="http://www.w3.org/2000/svg" viewBox="0 0 16 17" id="reliability">
    <path d="M13 3H3C2.73478 3 2.48043 3.10536 2.29289 3.29289C2.10536 3.48043 2 3.73478 2 4V7.5C2 10.795 3.595 12.7919 4.93313 13.8869C6.37437 15.0656 7.80813 15.4656 7.87063 15.4825C7.95656 15.5059 8.04719 15.5059 8.13313 15.4825C8.19563 15.4656 9.6275 15.0656 11.0706 13.8869C12.405 12.7919 14 10.795 14 7.5V4C14 3.73478 13.8946 3.48043 13.7071 3.29289C13.5196 3.10536 13.2652 3 13 3ZM10.855 7.35375L7.355 10.8538C7.30856 10.9002 7.25342 10.9371 7.19272 10.9623C7.13202 10.9874 7.06696 11.0004 7.00125 11.0004C6.93554 11.0004 6.87048 10.9874 6.80978 10.9623C6.74908 10.9371 6.69394 10.9002 6.6475 10.8538L5.1475 9.35375C5.05368 9.25993 5.00097 9.13268 5.00097 9C5.00097 8.86732 5.05368 8.74007 5.1475 8.64625C5.24132 8.55243 5.36857 8.49972 5.50125 8.49972C5.63393 8.49972 5.76118 8.55243 5.855 8.64625L7 9.79313L10.1462 6.64625C10.1927 6.59979 10.2479 6.56294 10.3086 6.5378C10.3692 6.51266 10.4343 6.49972 10.5 6.49972C10.5657 6.49972 10.6308 6.51266 10.6914 6.5378C10.7521 6.56294 10.8073 6.59979 10.8538 6.64625C10.9002 6.6927 10.9371 6.74786 10.9622 6.80855C10.9873 6.86925 11.0003 6.9343 11.0003 7C11.0003 7.0657 10.9873 7.13075 10.9622 7.19145C10.9371 7.25214 10.9002 7.3073 10.8538 7.35375H10.855Z" />
  </symbol>
  <symbol xmlns="http://www.w3.org/2000/svg" viewBox="0 0 16 17" id="trust">
    <path d="M14.625 5.5075C14.4842 5.34795 14.3111 5.22019 14.1171 5.13269C13.9231 5.04519 13.7128 4.99996 13.5 5H10V4C10 3.33696 9.73661 2.70107 9.26777 2.23223C8.79893 1.76339 8.16304 1.5 7.5 1.5C7.40711 1.49993 7.31604 1.52574 7.237 1.57454C7.15795 1.62333 7.09407 1.69318 7.0525 1.77625L4.69125 6.5H2C1.73478 6.5 1.48043 6.60536 1.29289 6.79289C1.10536 6.98043 1 7.23478 1 7.5V13C1 13.2652 1.10536 13.5196 1.29289 13.7071C1.48043 13.8946 1.73478 14 2 14H12.75C13.1154 14.0001 13.4684 13.8668 13.7425 13.6252C14.0166 13.3835 14.1931 13.0501 14.2388 12.6875L14.9888 6.6875C15.0153 6.47626 14.9966 6.26179 14.9339 6.05833C14.8712 5.85488 14.7659 5.66711 14.625 5.5075ZM2 7.5H4.5V13H2V7.5Z"/>
  </symbol>
  <symbol xmlns="http://www.w3.org/2000/svg" viewBox="0 0 16 16" id="mail">
    <path d="M14 3H2C1.86739 3 1.74021 3.05268 1.64645 3.14645C1.55268 3.24021 1.5 3.36739 1.5 3.5V12C1.5 12.2652 1.60536 12.5196 1.79289 12.7071C1.98043 12.8946 2.23478 13 2.5 13H13.5C13.7652 13 14.0196 12.8946 14.2071 12.7071C14.3946 12.5196 14.5 12.2652 14.5 12V3.5C14.5 3.36739 14.4473 3.24021 14.3536 3.14645C14.2598 3.05268 14.1326 3 14 3ZM13.5 12H2.5V4.63688L7.66187 9.36875C7.75412 9.45343 7.87478 9.50041 8 9.50041C8.12522 9.50041 8.24588 9.45343 8.33813 9.36875L13.5 4.63688V12Z"/>
  </symbol>
  <symbol xmlns="http://www.w3.org/2000/svg" viewBox="0 0 24 24" id="telegram">
    <path fill-rule="evenodd" clip-rule="evenodd" d="M24 12C24 18.6274 18.6274 24 12 24C5.37258 24 0 18.6274 0 12C0 5.37258 5.37258 0 12 0C18.6274 0 24 5.37258 24 12ZM12.4301 8.85954C11.263 9.34501 8.93026 10.3498 5.43201 11.8739C4.86395 12.0998 4.56638 12.3208 4.53929 12.5369C4.49351 12.9021 4.95084 13.0459 5.5736 13.2417C5.65831 13.2684 5.74608 13.296 5.83606 13.3252C6.44876 13.5244 7.27295 13.7574 7.70141 13.7667C8.09007 13.775 8.52385 13.6148 9.00276 13.286C12.2713 11.0796 13.9585 9.96442 14.0644 9.94038C14.1392 9.92342 14.2427 9.90209 14.3129 9.96446C14.3831 10.0268 14.3762 10.1449 14.3687 10.1766C14.3234 10.3698 12.5282 12.0387 11.5992 12.9024C11.3096 13.1716 11.1042 13.3626 11.0622 13.4063C10.9681 13.504 10.8722 13.5964 10.7801 13.6852C10.2109 14.2339 9.78403 14.6454 10.8037 15.3174C11.2938 15.6403 11.6859 15.9074 12.0771 16.1738C12.5043 16.4647 12.9304 16.7549 13.4817 17.1163C13.6222 17.2084 13.7563 17.304 13.887 17.3971C14.3842 17.7516 14.8309 18.07 15.3827 18.0193C15.7034 17.9897 16.0346 17.6882 16.2028 16.789C16.6003 14.6638 17.3817 10.0591 17.5623 8.16159C17.5782 7.99534 17.5583 7.78258 17.5423 7.68919C17.5263 7.59579 17.4929 7.46272 17.3715 7.36421C17.2277 7.24755 17.0058 7.22295 16.9065 7.22469C16.4551 7.23265 15.7627 7.47343 12.4301 8.85954Z" />
  </symbol>
  <symbol xmlns="http://www.w3.org/2000/svg" viewBox="0 0 24 24" id="fullscreen">
    <path fill-rule="evenodd" clip-rule="evenodd" d="M18 4.654v.291a10 10 0 0 0-1.763 1.404l-2.944 2.944a1 1 0 0 0 1.414 1.414l2.933-2.932A9.995 9.995 0 0 0 19.05 6h.296l-.09.39A9.998 9.998 0 0 0 19 8.64v.857a1 1 0 1 0 2 0V4.503a1.5 1.5 0 0 0-1.5-1.5L14.5 3a1 1 0 1 0 0 2h.861a10 10 0 0 0 2.249-.256l.39-.09zM4.95 18a10 10 0 0 1 1.41-1.775l2.933-2.932a1 1 0 0 1 1.414 1.414l-2.944 2.944A9.998 9.998 0 0 1 6 19.055v.291l.39-.09A9.998 9.998 0 0 1 8.64 19H9.5a1 1 0 1 1 0 2l-5-.003a1.5 1.5 0 0 1-1.5-1.5V14.5a1 1 0 1 1 2 0v.861a10 10 0 0 1-.256 2.249l-.09.39h.295z"/>
  </symbol>
  <symbol xmlns="http://www.w3.org/2000/svg" viewBox="0 0 24 24" id="fullscreen-exit">
    <path d="M21.7071 3.70711L16.4142 9H20C20.5523 9 21 9.44772 21 10C21 10.5523 20.5523 11 20 11H14.0007L13.997 11C13.743 10.9992 13.4892 10.9023 13.295 10.7092L13.2908 10.705C13.196 10.6096 13.1243 10.4999 13.0759 10.3828C13.0273 10.2657 13.0004 10.1375 13 10.003L13 10V4C13 3.44772 13.4477 3 14 3C14.5523 3 15 3.44772 15 4V7.58579L20.2929 2.29289C20.6834 1.90237 21.3166 1.90237 21.7071 2.29289C22.0976 2.68342 22.0976 3.31658 21.7071 3.70711Z"/>
    <path d="M9 20C9 20.5523 9.44772 21 10 21C10.5523 21 11 20.5523 11 20V14.0007C11 13.9997 11 13.998 11 13.997C10.9992 13.7231 10.8883 13.4752 10.7092 13.295C10.7078 13.2936 10.7064 13.2922 10.705 13.2908C10.6096 13.196 10.4999 13.1243 10.3828 13.0759C10.2657 13.0273 10.1375 13.0004 10.003 13C10.002 13 10.001 13 10 13H4C3.44772 13 3 13.4477 3 14C3 14.5523 3.44772 15 4 15H7.58579L2.29289 20.2929C1.90237 20.6834 1.90237 21.3166 2.29289 21.7071C2.68342 22.0976 3.31658 22.0976 3.70711 21.7071L9 16.4142V20Z"/>
  </symbol>
</svg>